<mxfile host="Electron" agent="Mozilla/5.0 (Windows NT 10.0; Win64; x64) AppleWebKit/537.36 (KHTML, like Gecko) draw.io/25.0.2 Chrome/128.0.6613.186 Electron/32.2.5 Safari/537.36" version="25.0.2">
  <diagram id="C5RBs43oDa-KdzZeNtuy" name="Page-1">
    <mxGraphModel dx="989" dy="659" grid="1" gridSize="10" guides="1" tooltips="1" connect="1" arrows="1" fold="1" page="1" pageScale="1" pageWidth="827" pageHeight="1169" math="0" shadow="0">
      <root>
        <mxCell id="WIyWlLk6GJQsqaUBKTNV-0" />
        <mxCell id="WIyWlLk6GJQsqaUBKTNV-1" parent="WIyWlLk6GJQsqaUBKTNV-0" />
        <mxCell id="6Jywi8Flgo9X5tOf_dYk-5" value="файл: algorithm.ixx&lt;div&gt;&lt;span style=&quot;font-weight: normal;&quot;&gt;клас: BruteForceReconfigurationTable&lt;/span&gt;&lt;/div&gt;" style="text;html=1;align=left;verticalAlign=middle;whiteSpace=wrap;rounded=0;fontStyle=1" parent="WIyWlLk6GJQsqaUBKTNV-1" vertex="1">
          <mxGeometry y="10" width="190" height="30" as="geometry" />
        </mxCell>
        <mxCell id="6Jywi8Flgo9X5tOf_dYk-52" style="edgeStyle=orthogonalEdgeStyle;rounded=0;orthogonalLoop=1;jettySize=auto;html=1;entryX=0.5;entryY=0;entryDx=0;entryDy=0;" parent="WIyWlLk6GJQsqaUBKTNV-1" source="6Jywi8Flgo9X5tOf_dYk-7" target="6Jywi8Flgo9X5tOf_dYk-29" edge="1">
          <mxGeometry relative="1" as="geometry" />
        </mxCell>
        <mxCell id="6Jywi8Flgo9X5tOf_dYk-7" value="Сформувати стек процесорів, які підлягають реконфігурації" style="rounded=0;whiteSpace=wrap;html=1;" parent="WIyWlLk6GJQsqaUBKTNV-1" vertex="1">
          <mxGeometry x="121" y="120" width="359" height="40" as="geometry" />
        </mxCell>
        <mxCell id="6Jywi8Flgo9X5tOf_dYk-10" value="Процесор підлягає конфігурації, якщо виконуються 2 умови:&lt;br&gt;&lt;div&gt;- процесор відмовив&lt;/div&gt;&lt;div&gt;- таблиця реконфігурації містисть перерозподіли для даного процесору&lt;/div&gt;" style="rounded=1;whiteSpace=wrap;html=1;fontSize=8;align=left;" parent="WIyWlLk6GJQsqaUBKTNV-1" vertex="1">
          <mxGeometry x="551" y="110" width="210" height="60" as="geometry" />
        </mxCell>
        <mxCell id="6Jywi8Flgo9X5tOf_dYk-12" style="edgeStyle=orthogonalEdgeStyle;rounded=0;orthogonalLoop=1;jettySize=auto;html=1;entryX=1;entryY=0.5;entryDx=0;entryDy=0;endArrow=oval;endFill=1;" parent="WIyWlLk6GJQsqaUBKTNV-1" source="6Jywi8Flgo9X5tOf_dYk-10" target="6Jywi8Flgo9X5tOf_dYk-7" edge="1">
          <mxGeometry relative="1" as="geometry" />
        </mxCell>
        <mxCell id="6Jywi8Flgo9X5tOf_dYk-19" style="edgeStyle=orthogonalEdgeStyle;rounded=0;orthogonalLoop=1;jettySize=auto;html=1;entryX=0.5;entryY=0;entryDx=0;entryDy=0;exitX=0;exitY=0.5;exitDx=0;exitDy=0;" parent="WIyWlLk6GJQsqaUBKTNV-1" source="6Jywi8Flgo9X5tOf_dYk-29" target="6Jywi8Flgo9X5tOf_dYk-18" edge="1">
          <mxGeometry relative="1" as="geometry">
            <mxPoint x="213" y="220" as="sourcePoint" />
          </mxGeometry>
        </mxCell>
        <mxCell id="6Jywi8Flgo9X5tOf_dYk-58" style="edgeStyle=orthogonalEdgeStyle;rounded=0;orthogonalLoop=1;jettySize=auto;html=1;entryX=0.5;entryY=0;entryDx=0;entryDy=0;" parent="WIyWlLk6GJQsqaUBKTNV-1" source="6Jywi8Flgo9X5tOf_dYk-18" target="6Jywi8Flgo9X5tOf_dYk-53" edge="1">
          <mxGeometry relative="1" as="geometry" />
        </mxCell>
        <mxCell id="6Jywi8Flgo9X5tOf_dYk-18" value="sv2 = sv1" style="rounded=0;whiteSpace=wrap;html=1;" parent="WIyWlLk6GJQsqaUBKTNV-1" vertex="1">
          <mxGeometry x="41" y="440" width="80" height="40" as="geometry" />
        </mxCell>
        <mxCell id="6Jywi8Flgo9X5tOf_dYk-20" value="так" style="text;html=1;align=center;verticalAlign=middle;whiteSpace=wrap;rounded=0;" parent="WIyWlLk6GJQsqaUBKTNV-1" vertex="1">
          <mxGeometry x="170" y="190" width="60" height="30" as="geometry" />
        </mxCell>
        <mxCell id="6Jywi8Flgo9X5tOf_dYk-21" value="рекурсивний обхід дерева варіантів реконфігурацій вглибну" style="rounded=0;whiteSpace=wrap;html=1;" parent="WIyWlLk6GJQsqaUBKTNV-1" vertex="1">
          <mxGeometry x="201" y="280" width="199" height="40" as="geometry" />
        </mxCell>
        <mxCell id="6Jywi8Flgo9X5tOf_dYk-23" value="Ні" style="text;html=1;align=center;verticalAlign=middle;whiteSpace=wrap;rounded=0;" parent="WIyWlLk6GJQsqaUBKTNV-1" vertex="1">
          <mxGeometry x="310" y="240" width="30" height="25" as="geometry" />
        </mxCell>
        <mxCell id="6Jywi8Flgo9X5tOf_dYk-33" style="edgeStyle=orthogonalEdgeStyle;rounded=0;orthogonalLoop=1;jettySize=auto;html=1;entryX=0.75;entryY=0;entryDx=0;entryDy=0;" parent="WIyWlLk6GJQsqaUBKTNV-1" source="6Jywi8Flgo9X5tOf_dYk-27" target="6Jywi8Flgo9X5tOf_dYk-18" edge="1">
          <mxGeometry relative="1" as="geometry" />
        </mxCell>
        <mxCell id="6Jywi8Flgo9X5tOf_dYk-27" value="Чи отримано новий вектор станів системи внаслідок реконфігурації ?" style="shape=hexagon;perimeter=hexagonPerimeter2;whiteSpace=wrap;html=1;fixedSize=1;" parent="WIyWlLk6GJQsqaUBKTNV-1" vertex="1">
          <mxGeometry x="190" y="360" width="230" height="40" as="geometry" />
        </mxCell>
        <mxCell id="6Jywi8Flgo9X5tOf_dYk-30" style="edgeStyle=orthogonalEdgeStyle;rounded=0;orthogonalLoop=1;jettySize=auto;html=1;entryX=0.5;entryY=0;entryDx=0;entryDy=0;" parent="WIyWlLk6GJQsqaUBKTNV-1" source="6Jywi8Flgo9X5tOf_dYk-29" target="6Jywi8Flgo9X5tOf_dYk-21" edge="1">
          <mxGeometry relative="1" as="geometry" />
        </mxCell>
        <mxCell id="6Jywi8Flgo9X5tOf_dYk-29" value="Стек порожній ?" style="shape=hexagon;perimeter=hexagonPerimeter2;whiteSpace=wrap;html=1;fixedSize=1;" parent="WIyWlLk6GJQsqaUBKTNV-1" vertex="1">
          <mxGeometry x="240.5" y="200" width="120" height="40" as="geometry" />
        </mxCell>
        <mxCell id="6Jywi8Flgo9X5tOf_dYk-57" style="edgeStyle=orthogonalEdgeStyle;rounded=0;orthogonalLoop=1;jettySize=auto;html=1;entryX=0.5;entryY=0;entryDx=0;entryDy=0;" parent="WIyWlLk6GJQsqaUBKTNV-1" source="6Jywi8Flgo9X5tOf_dYk-31" target="6Jywi8Flgo9X5tOf_dYk-53" edge="1">
          <mxGeometry relative="1" as="geometry" />
        </mxCell>
        <mxCell id="6Jywi8Flgo9X5tOf_dYk-31" value="sv2 = вектор станів системи, отриманий обходом дера варіантів" style="rounded=0;whiteSpace=wrap;html=1;" parent="WIyWlLk6GJQsqaUBKTNV-1" vertex="1">
          <mxGeometry x="201" y="440" width="200" height="40" as="geometry" />
        </mxCell>
        <mxCell id="6Jywi8Flgo9X5tOf_dYk-34" value="ні" style="text;html=1;align=center;verticalAlign=middle;whiteSpace=wrap;rounded=0;" parent="WIyWlLk6GJQsqaUBKTNV-1" vertex="1">
          <mxGeometry x="130" y="350" width="39" height="30" as="geometry" />
        </mxCell>
        <mxCell id="6Jywi8Flgo9X5tOf_dYk-38" value="так" style="text;html=1;align=center;verticalAlign=middle;whiteSpace=wrap;rounded=0;" parent="WIyWlLk6GJQsqaUBKTNV-1" vertex="1">
          <mxGeometry x="305" y="400" width="40" height="30" as="geometry" />
        </mxCell>
        <mxCell id="6Jywi8Flgo9X5tOf_dYk-41" style="edgeStyle=orthogonalEdgeStyle;rounded=0;orthogonalLoop=1;jettySize=auto;html=1;entryX=0.48;entryY=0;entryDx=0;entryDy=0;entryPerimeter=0;" parent="WIyWlLk6GJQsqaUBKTNV-1" source="6Jywi8Flgo9X5tOf_dYk-21" target="6Jywi8Flgo9X5tOf_dYk-27" edge="1">
          <mxGeometry relative="1" as="geometry" />
        </mxCell>
        <mxCell id="6Jywi8Flgo9X5tOf_dYk-42" style="edgeStyle=orthogonalEdgeStyle;rounded=0;orthogonalLoop=1;jettySize=auto;html=1;entryX=0.52;entryY=0;entryDx=0;entryDy=0;entryPerimeter=0;" parent="WIyWlLk6GJQsqaUBKTNV-1" source="6Jywi8Flgo9X5tOf_dYk-27" target="6Jywi8Flgo9X5tOf_dYk-31" edge="1">
          <mxGeometry relative="1" as="geometry" />
        </mxCell>
        <mxCell id="6Jywi8Flgo9X5tOf_dYk-51" style="edgeStyle=orthogonalEdgeStyle;rounded=0;orthogonalLoop=1;jettySize=auto;html=1;entryX=0.5;entryY=0;entryDx=0;entryDy=0;" parent="WIyWlLk6GJQsqaUBKTNV-1" source="6Jywi8Flgo9X5tOf_dYk-43" target="6Jywi8Flgo9X5tOf_dYk-7" edge="1">
          <mxGeometry relative="1" as="geometry" />
        </mxCell>
        <mxCell id="6Jywi8Flgo9X5tOf_dYk-43" value="Вхідні дані:" style="swimlane;fontStyle=0;childLayout=stackLayout;horizontal=1;startSize=30;horizontalStack=0;resizeParent=1;resizeParentMax=0;resizeLast=0;collapsible=1;marginBottom=0;whiteSpace=wrap;html=1;align=left;" parent="WIyWlLk6GJQsqaUBKTNV-1" vertex="1">
          <mxGeometry x="201" y="20" width="199" height="60" as="geometry" />
        </mxCell>
        <mxCell id="6Jywi8Flgo9X5tOf_dYk-44" value="&lt;span style=&quot;text-align: center;&quot;&gt;Вектор станів системи sv1&lt;/span&gt;" style="text;strokeColor=none;fillColor=none;align=left;verticalAlign=middle;spacingLeft=4;spacingRight=4;overflow=hidden;points=[[0,0.5],[1,0.5]];portConstraint=eastwest;rotatable=0;whiteSpace=wrap;html=1;" parent="6Jywi8Flgo9X5tOf_dYk-43" vertex="1">
          <mxGeometry y="30" width="199" height="30" as="geometry" />
        </mxCell>
        <mxCell id="6Jywi8Flgo9X5tOf_dYk-53" value="Вихідні дані:" style="swimlane;fontStyle=0;childLayout=stackLayout;horizontal=1;startSize=30;horizontalStack=0;resizeParent=1;resizeParentMax=0;resizeLast=0;collapsible=1;marginBottom=0;whiteSpace=wrap;html=1;" parent="WIyWlLk6GJQsqaUBKTNV-1" vertex="1">
          <mxGeometry x="121" y="540" width="200" height="60" as="geometry" />
        </mxCell>
        <mxCell id="6Jywi8Flgo9X5tOf_dYk-54" value="Вектор станів системи sv2" style="text;strokeColor=none;fillColor=none;align=left;verticalAlign=middle;spacingLeft=4;spacingRight=4;overflow=hidden;points=[[0,0.5],[1,0.5]];portConstraint=eastwest;rotatable=0;whiteSpace=wrap;html=1;" parent="6Jywi8Flgo9X5tOf_dYk-53" vertex="1">
          <mxGeometry y="30" width="200" height="30" as="geometry" />
        </mxCell>
        <mxCell id="6Jywi8Flgo9X5tOf_dYk-59" value="svс = sv1" style="rounded=0;whiteSpace=wrap;html=1;" parent="WIyWlLk6GJQsqaUBKTNV-1" vertex="1">
          <mxGeometry x="640" y="440" width="80" height="40" as="geometry" />
        </mxCell>
        <mxCell id="6Jywi8Flgo9X5tOf_dYk-62" style="edgeStyle=orthogonalEdgeStyle;rounded=0;orthogonalLoop=1;jettySize=auto;html=1;entryX=1;entryY=0.5;entryDx=0;entryDy=0;endArrow=diamond;endFill=1;" parent="WIyWlLk6GJQsqaUBKTNV-1" source="6Jywi8Flgo9X5tOf_dYk-60" target="6Jywi8Flgo9X5tOf_dYk-21" edge="1">
          <mxGeometry relative="1" as="geometry">
            <Array as="points">
              <mxPoint x="618" y="300" />
            </Array>
          </mxGeometry>
        </mxCell>
        <mxCell id="6Jywi8Flgo9X5tOf_dYk-63" style="edgeStyle=orthogonalEdgeStyle;rounded=0;orthogonalLoop=1;jettySize=auto;html=1;entryX=0.5;entryY=0;entryDx=0;entryDy=0;" parent="WIyWlLk6GJQsqaUBKTNV-1" source="6Jywi8Flgo9X5tOf_dYk-60" target="6Jywi8Flgo9X5tOf_dYk-59" edge="1">
          <mxGeometry relative="1" as="geometry" />
        </mxCell>
        <mxCell id="6Jywi8Flgo9X5tOf_dYk-83" style="edgeStyle=orthogonalEdgeStyle;rounded=0;orthogonalLoop=1;jettySize=auto;html=1;entryX=0.5;entryY=0;entryDx=0;entryDy=0;" parent="WIyWlLk6GJQsqaUBKTNV-1" source="6Jywi8Flgo9X5tOf_dYk-60" target="6Jywi8Flgo9X5tOf_dYk-82" edge="1">
          <mxGeometry relative="1" as="geometry" />
        </mxCell>
        <mxCell id="6Jywi8Flgo9X5tOf_dYk-60" value="умова зупинки рекурсії: стек процесорів, що підлягають реконфігруації, порожній?" style="shape=hexagon;perimeter=hexagonPerimeter2;whiteSpace=wrap;html=1;fixedSize=1;" parent="WIyWlLk6GJQsqaUBKTNV-1" vertex="1">
          <mxGeometry x="480" y="320" width="276" height="40" as="geometry" />
        </mxCell>
        <mxCell id="6Jywi8Flgo9X5tOf_dYk-64" value="так" style="text;html=1;align=center;verticalAlign=middle;whiteSpace=wrap;rounded=0;" parent="WIyWlLk6GJQsqaUBKTNV-1" vertex="1">
          <mxGeometry x="626" y="370" width="60" height="30" as="geometry" />
        </mxCell>
        <mxCell id="6Jywi8Flgo9X5tOf_dYk-70" style="edgeStyle=orthogonalEdgeStyle;rounded=0;orthogonalLoop=1;jettySize=auto;html=1;entryX=0.5;entryY=0;entryDx=0;entryDy=0;" parent="WIyWlLk6GJQsqaUBKTNV-1" source="6Jywi8Flgo9X5tOf_dYk-65" target="6Jywi8Flgo9X5tOf_dYk-69" edge="1">
          <mxGeometry relative="1" as="geometry" />
        </mxCell>
        <mxCell id="6Jywi8Flgo9X5tOf_dYk-65" value="кожний робочий процесор svc, реконфігураційне навантаження якого перевищило максимальне, встановити таким що відмовив" style="rounded=0;whiteSpace=wrap;html=1;" parent="WIyWlLk6GJQsqaUBKTNV-1" vertex="1">
          <mxGeometry x="600" y="510" width="200" height="60" as="geometry" />
        </mxCell>
        <mxCell id="6Jywi8Flgo9X5tOf_dYk-68" style="edgeStyle=orthogonalEdgeStyle;rounded=0;orthogonalLoop=1;jettySize=auto;html=1;entryX=0.4;entryY=0;entryDx=0;entryDy=0;entryPerimeter=0;" parent="WIyWlLk6GJQsqaUBKTNV-1" source="6Jywi8Flgo9X5tOf_dYk-59" target="6Jywi8Flgo9X5tOf_dYk-65" edge="1">
          <mxGeometry relative="1" as="geometry" />
        </mxCell>
        <mxCell id="6Jywi8Flgo9X5tOf_dYk-72" style="edgeStyle=orthogonalEdgeStyle;rounded=0;orthogonalLoop=1;jettySize=auto;html=1;entryX=0.5;entryY=0;entryDx=0;entryDy=0;" parent="WIyWlLk6GJQsqaUBKTNV-1" source="6Jywi8Flgo9X5tOf_dYk-69" target="6Jywi8Flgo9X5tOf_dYk-71" edge="1">
          <mxGeometry relative="1" as="geometry" />
        </mxCell>
        <mxCell id="6Jywi8Flgo9X5tOf_dYk-69" value="кожний неробочий процесор svc, реконфігурація якого є &lt;b&gt;успішною&lt;/b&gt;, встановити робочим" style="rounded=0;whiteSpace=wrap;html=1;" parent="WIyWlLk6GJQsqaUBKTNV-1" vertex="1">
          <mxGeometry x="600" y="600" width="200" height="50" as="geometry" />
        </mxCell>
        <mxCell id="6Jywi8Flgo9X5tOf_dYk-75" style="edgeStyle=orthogonalEdgeStyle;rounded=0;orthogonalLoop=1;jettySize=auto;html=1;entryX=1;entryY=0.5;entryDx=0;entryDy=0;" parent="WIyWlLk6GJQsqaUBKTNV-1" source="6Jywi8Flgo9X5tOf_dYk-71" target="6Jywi8Flgo9X5tOf_dYk-73" edge="1">
          <mxGeometry relative="1" as="geometry">
            <Array as="points">
              <mxPoint x="710" y="870" />
            </Array>
          </mxGeometry>
        </mxCell>
        <mxCell id="6Jywi8Flgo9X5tOf_dYk-81" style="edgeStyle=orthogonalEdgeStyle;rounded=0;orthogonalLoop=1;jettySize=auto;html=1;entryX=1;entryY=0.5;entryDx=0;entryDy=0;" parent="WIyWlLk6GJQsqaUBKTNV-1" source="6Jywi8Flgo9X5tOf_dYk-71" target="6Jywi8Flgo9X5tOf_dYk-77" edge="1">
          <mxGeometry relative="1" as="geometry">
            <Array as="points">
              <mxPoint x="740" y="780" />
            </Array>
          </mxGeometry>
        </mxCell>
        <mxCell id="6Jywi8Flgo9X5tOf_dYk-71" value="стан системи (svc) робочий ?" style="shape=hexagon;perimeter=hexagonPerimeter2;whiteSpace=wrap;html=1;fixedSize=1;" parent="WIyWlLk6GJQsqaUBKTNV-1" vertex="1">
          <mxGeometry x="601.5" y="680" width="197" height="40" as="geometry" />
        </mxCell>
        <mxCell id="c65S1tqOYqmgUCvtmN8_-1" style="edgeStyle=orthogonalEdgeStyle;rounded=0;orthogonalLoop=1;jettySize=auto;html=1;entryX=0.75;entryY=0;entryDx=0;entryDy=0;" edge="1" parent="WIyWlLk6GJQsqaUBKTNV-1" source="6Jywi8Flgo9X5tOf_dYk-73" target="c65S1tqOYqmgUCvtmN8_-0">
          <mxGeometry relative="1" as="geometry" />
        </mxCell>
        <mxCell id="6Jywi8Flgo9X5tOf_dYk-73" value="порівняти (за кількістю робочих елементів) svc з найкращим неробочим ВСС знайденим до цього, обрати найкращий" style="rounded=0;whiteSpace=wrap;html=1;" parent="WIyWlLk6GJQsqaUBKTNV-1" vertex="1">
          <mxGeometry x="500" y="830" width="180" height="80" as="geometry" />
        </mxCell>
        <mxCell id="6Jywi8Flgo9X5tOf_dYk-76" value="ні" style="text;html=1;align=center;verticalAlign=middle;whiteSpace=wrap;rounded=0;" parent="WIyWlLk6GJQsqaUBKTNV-1" vertex="1">
          <mxGeometry x="710" y="840" width="30" height="30" as="geometry" />
        </mxCell>
        <mxCell id="c65S1tqOYqmgUCvtmN8_-2" style="edgeStyle=orthogonalEdgeStyle;rounded=0;orthogonalLoop=1;jettySize=auto;html=1;entryX=0.75;entryY=0;entryDx=0;entryDy=0;" edge="1" parent="WIyWlLk6GJQsqaUBKTNV-1" source="6Jywi8Flgo9X5tOf_dYk-77" target="c65S1tqOYqmgUCvtmN8_-0">
          <mxGeometry relative="1" as="geometry">
            <Array as="points">
              <mxPoint x="480" y="780" />
            </Array>
          </mxGeometry>
        </mxCell>
        <mxCell id="6Jywi8Flgo9X5tOf_dYk-77" value="припинити рекурсивний обхід, &lt;b&gt;результат обходу = svc&lt;/b&gt;" style="rounded=0;whiteSpace=wrap;html=1;" parent="WIyWlLk6GJQsqaUBKTNV-1" vertex="1">
          <mxGeometry x="500" y="760" width="180" height="40" as="geometry" />
        </mxCell>
        <mxCell id="6Jywi8Flgo9X5tOf_dYk-80" value="так" style="text;html=1;align=center;verticalAlign=middle;whiteSpace=wrap;rounded=0;" parent="WIyWlLk6GJQsqaUBKTNV-1" vertex="1">
          <mxGeometry x="740" y="730" width="40" height="30" as="geometry" />
        </mxCell>
        <mxCell id="6Jywi8Flgo9X5tOf_dYk-86" style="edgeStyle=orthogonalEdgeStyle;rounded=0;orthogonalLoop=1;jettySize=auto;html=1;entryX=0.5;entryY=0;entryDx=0;entryDy=0;" parent="WIyWlLk6GJQsqaUBKTNV-1" source="6Jywi8Flgo9X5tOf_dYk-82" target="6Jywi8Flgo9X5tOf_dYk-85" edge="1">
          <mxGeometry relative="1" as="geometry" />
        </mxCell>
        <mxCell id="6Jywi8Flgo9X5tOf_dYk-82" value="отримати множину перерозподілів навантажень для поточного процесору із реконфігураційної таблиці" style="rounded=0;whiteSpace=wrap;html=1;" parent="WIyWlLk6GJQsqaUBKTNV-1" vertex="1">
          <mxGeometry x="440" y="440" width="140" height="90" as="geometry" />
        </mxCell>
        <mxCell id="6Jywi8Flgo9X5tOf_dYk-84" value="ні" style="text;html=1;align=center;verticalAlign=middle;whiteSpace=wrap;rounded=0;" parent="WIyWlLk6GJQsqaUBKTNV-1" vertex="1">
          <mxGeometry x="510" y="370" width="60" height="30" as="geometry" />
        </mxCell>
        <mxCell id="6Jywi8Flgo9X5tOf_dYk-90" style="edgeStyle=orthogonalEdgeStyle;rounded=0;orthogonalLoop=1;jettySize=auto;html=1;entryX=0.5;entryY=0;entryDx=0;entryDy=0;" parent="WIyWlLk6GJQsqaUBKTNV-1" source="6Jywi8Flgo9X5tOf_dYk-85" target="6Jywi8Flgo9X5tOf_dYk-88" edge="1">
          <mxGeometry relative="1" as="geometry" />
        </mxCell>
        <mxCell id="c65S1tqOYqmgUCvtmN8_-3" style="edgeStyle=orthogonalEdgeStyle;rounded=0;orthogonalLoop=1;jettySize=auto;html=1;exitX=1;exitY=0.5;exitDx=0;exitDy=0;entryX=0.75;entryY=0;entryDx=0;entryDy=0;" edge="1" parent="WIyWlLk6GJQsqaUBKTNV-1" source="6Jywi8Flgo9X5tOf_dYk-85" target="c65S1tqOYqmgUCvtmN8_-0">
          <mxGeometry relative="1" as="geometry">
            <mxPoint x="500" y="650" as="sourcePoint" />
            <mxPoint x="510" y="990" as="targetPoint" />
            <Array as="points">
              <mxPoint x="490" y="649" />
              <mxPoint x="490" y="990" />
              <mxPoint x="480" y="990" />
            </Array>
          </mxGeometry>
        </mxCell>
        <mxCell id="6Jywi8Flgo9X5tOf_dYk-85" value="для кожного перерозподілу навантажень поточного процесору" style="shape=loopLimit;whiteSpace=wrap;html=1;" parent="WIyWlLk6GJQsqaUBKTNV-1" vertex="1">
          <mxGeometry x="360.5" y="619" width="120" height="60" as="geometry" />
        </mxCell>
        <mxCell id="6Jywi8Flgo9X5tOf_dYk-93" style="edgeStyle=orthogonalEdgeStyle;rounded=0;orthogonalLoop=1;jettySize=auto;html=1;entryX=0.5;entryY=0;entryDx=0;entryDy=0;" parent="WIyWlLk6GJQsqaUBKTNV-1" source="6Jywi8Flgo9X5tOf_dYk-88" target="6Jywi8Flgo9X5tOf_dYk-92" edge="1">
          <mxGeometry relative="1" as="geometry">
            <Array as="points">
              <mxPoint x="300" y="729" />
              <mxPoint x="300" y="759" />
            </Array>
          </mxGeometry>
        </mxCell>
        <mxCell id="6Jywi8Flgo9X5tOf_dYk-97" style="edgeStyle=orthogonalEdgeStyle;rounded=0;orthogonalLoop=1;jettySize=auto;html=1;entryX=0.5;entryY=0;entryDx=0;entryDy=0;" parent="WIyWlLk6GJQsqaUBKTNV-1" source="6Jywi8Flgo9X5tOf_dYk-88" target="6Jywi8Flgo9X5tOf_dYk-89" edge="1">
          <mxGeometry relative="1" as="geometry">
            <Array as="points">
              <mxPoint x="421" y="839" />
              <mxPoint x="360" y="839" />
            </Array>
          </mxGeometry>
        </mxCell>
        <mxCell id="6Jywi8Flgo9X5tOf_dYk-88" value="Перерозподіл є &lt;b&gt;можливим&lt;/b&gt; ?" style="shape=hexagon;perimeter=hexagonPerimeter2;whiteSpace=wrap;html=1;fixedSize=1;" parent="WIyWlLk6GJQsqaUBKTNV-1" vertex="1">
          <mxGeometry x="360.5" y="709" width="120" height="40" as="geometry" />
        </mxCell>
        <mxCell id="c65S1tqOYqmgUCvtmN8_-8" style="edgeStyle=orthogonalEdgeStyle;rounded=0;orthogonalLoop=1;jettySize=auto;html=1;entryX=0.5;entryY=0;entryDx=0;entryDy=0;" edge="1" parent="WIyWlLk6GJQsqaUBKTNV-1" source="6Jywi8Flgo9X5tOf_dYk-89" target="c65S1tqOYqmgUCvtmN8_-4">
          <mxGeometry relative="1" as="geometry" />
        </mxCell>
        <mxCell id="6Jywi8Flgo9X5tOf_dYk-89" value="рекурсивний виклик: розглядати наступний процесор що потребує реконфігурації" style="rounded=0;whiteSpace=wrap;html=1;" parent="WIyWlLk6GJQsqaUBKTNV-1" vertex="1">
          <mxGeometry x="280.5" y="879" width="159.5" height="60" as="geometry" />
        </mxCell>
        <mxCell id="6Jywi8Flgo9X5tOf_dYk-94" style="edgeStyle=orthogonalEdgeStyle;rounded=0;orthogonalLoop=1;jettySize=auto;html=1;entryX=0.5;entryY=0;entryDx=0;entryDy=0;" parent="WIyWlLk6GJQsqaUBKTNV-1" source="6Jywi8Flgo9X5tOf_dYk-92" target="6Jywi8Flgo9X5tOf_dYk-89" edge="1">
          <mxGeometry relative="1" as="geometry" />
        </mxCell>
        <mxCell id="6Jywi8Flgo9X5tOf_dYk-92" value="застосувати поточний перерозподіл&amp;nbsp;" style="rounded=0;whiteSpace=wrap;html=1;" parent="WIyWlLk6GJQsqaUBKTNV-1" vertex="1">
          <mxGeometry x="240.5" y="779" width="120" height="50" as="geometry" />
        </mxCell>
        <mxCell id="6Jywi8Flgo9X5tOf_dYk-98" value="ні" style="text;html=1;align=center;verticalAlign=middle;whiteSpace=wrap;rounded=0;" parent="WIyWlLk6GJQsqaUBKTNV-1" vertex="1">
          <mxGeometry x="420.5" y="779" width="39" height="30" as="geometry" />
        </mxCell>
        <mxCell id="6Jywi8Flgo9X5tOf_dYk-99" value="так" style="text;html=1;align=center;verticalAlign=middle;whiteSpace=wrap;rounded=0;" parent="WIyWlLk6GJQsqaUBKTNV-1" vertex="1">
          <mxGeometry x="310" y="699" width="40" height="20" as="geometry" />
        </mxCell>
        <mxCell id="c65S1tqOYqmgUCvtmN8_-0" value="повернутись на попередній рівень рекурсії" style="rounded=0;whiteSpace=wrap;html=1;" vertex="1" parent="WIyWlLk6GJQsqaUBKTNV-1">
          <mxGeometry x="360" y="1000" width="160" height="40" as="geometry" />
        </mxCell>
        <mxCell id="c65S1tqOYqmgUCvtmN8_-6" style="edgeStyle=orthogonalEdgeStyle;rounded=0;orthogonalLoop=1;jettySize=auto;html=1;entryX=0;entryY=0.5;entryDx=0;entryDy=0;" edge="1" parent="WIyWlLk6GJQsqaUBKTNV-1" source="c65S1tqOYqmgUCvtmN8_-4" target="6Jywi8Flgo9X5tOf_dYk-85">
          <mxGeometry relative="1" as="geometry">
            <Array as="points">
              <mxPoint x="180" y="649" />
            </Array>
          </mxGeometry>
        </mxCell>
        <mxCell id="c65S1tqOYqmgUCvtmN8_-4" value="" style="shape=loopLimit;whiteSpace=wrap;html=1;rotation=180;" vertex="1" parent="WIyWlLk6GJQsqaUBKTNV-1">
          <mxGeometry x="130" y="880" width="100" height="40" as="geometry" />
        </mxCell>
      </root>
    </mxGraphModel>
  </diagram>
</mxfile>
